<svg width="32" height="32" viewBox="0 0 32 32" fill="none" xmlns="http://www.w3.org/2000/svg">
<path d="M18.3067 28C18.0723 28.4041 17.7358 28.7396 17.331 28.9727C16.9261 29.2059 16.4672 29.3286 16 29.3286C15.5328 29.3286 15.0739 29.2059 14.669 28.9727C14.2642 28.7396 13.9277 28.4041 13.6933 28M24 10.6667C24 8.54496 23.1571 6.51012 21.6569 5.00983C20.1566 3.50954 18.1217 2.66669 16 2.66669C13.8783 2.66669 11.8434 3.50954 10.3431 5.00983C8.84286 6.51012 8 8.54496 8 10.6667C8 20 4 22.6667 4 22.6667H28C28 22.6667 24 20 24 10.6667Z" stroke="#1E1E1E" stroke-width="3" stroke-linecap="round" stroke-linejoin="round"/>
</svg>
