<svg width="30" height="30" viewBox="0 0 30 30" fill="none" xmlns="http://www.w3.org/2000/svg">
<path d="M20 26.25V6.25C20 5.58696 19.7366 4.95107 19.2678 4.48223C18.7989 4.01339 18.163 3.75 17.5 3.75H12.5C11.837 3.75 11.2011 4.01339 10.7322 4.48223C10.2634 4.95107 10 5.58696 10 6.25V26.25M5 8.75H25C26.3807 8.75 27.5 9.86929 27.5 11.25V23.75C27.5 25.1307 26.3807 26.25 25 26.25H5C3.61929 26.25 2.5 25.1307 2.5 23.75V11.25C2.5 9.86929 3.61929 8.75 5 8.75Z" stroke="#284029" stroke-width="4" stroke-linecap="round" stroke-linejoin="round"/>
</svg>
