<svg width="28" height="49" viewBox="0 0 28 49" fill="none" xmlns="http://www.w3.org/2000/svg">
<path d="M14.0522 2.00237C14.0522 2.00237 10.2268 1.69023 6.41967 8.23426C6.41967 8.23426 3.51927 8.70126 3.51927 10.7786C3.51927 10.7786 3.21657 12.8038 6.05782 12.9079H14.0536" stroke="#477C59" stroke-width="2.7" stroke-miterlimit="10"/>
<path d="M6.41824 8.23438H14.0522" stroke="#477C59" stroke-width="2.7" stroke-miterlimit="10"/>
<path d="M6.05638 12.9092C6.05638 12.9092 4.87089 17.2053 7.06026 20.4417C8.219 22.1548 10.3239 23.5703 14.0522 23.8958" stroke="#477C59" stroke-width="2.7" stroke-miterlimit="10"/>
<path d="M7.06022 20.4404C7.06022 20.4404 3.25029 21.4809 3.25029 24.5974V42.6797H14.0507" stroke="#477C59" stroke-width="2.7" stroke-miterlimit="10"/>
<path d="M3.25026 42.6798C3.25026 42.6798 1.86625 43.3065 2.01127 44.37L2 47.0001H14.0507" stroke="#477C59" stroke-width="2.7" stroke-linecap="round" stroke-linejoin="round"/>
<path d="M9.89299 16.3972H11.2221" stroke="#477C59" stroke-width="2.7" stroke-miterlimit="10" stroke-linecap="round"/>
<path d="M16.9581 16.3972H18.2872" stroke="#477C59" stroke-width="2.7" stroke-miterlimit="10" stroke-linecap="round"/>
<path d="M3.25029 26.619C4.05142 27.7212 4.90886 28.8463 6.10844 29.6606C7.3221 30.4833 9.08908 30.5111 10.1648 31.4535C11.0039 32.1879 11.0278 33.1848 10.5562 34.091C10.5562 34.091 9.79446 35.7134 8.00636 35.7557H3.50654" stroke="#477C59" stroke-width="2.7" stroke-miterlimit="10"/>
<path d="M13.9494 2.00237C13.9494 2.00237 17.7748 1.69023 21.5819 8.23426C21.5819 8.23426 24.4823 8.70126 24.4823 10.7786C24.4823 10.7786 24.785 12.8038 21.9437 12.9079H13.948" stroke="#477C59" stroke-width="2.7" stroke-miterlimit="10"/>
<path d="M21.5833 8.23438H13.9493" stroke="#477C59" stroke-width="2.7" stroke-miterlimit="10"/>
<path d="M21.9451 12.9092C21.9451 12.9092 23.1306 17.2053 20.9412 20.4417C19.7825 22.1548 17.6776 23.5703 13.9493 23.8958" stroke="#477C59" stroke-width="2.7" stroke-miterlimit="10"/>
<path d="M20.9413 20.4404C20.9413 20.4404 24.7512 21.4809 24.7512 24.5974V42.6797H13.9508" stroke="#477C59" stroke-width="2.7" stroke-miterlimit="10"/>
<path d="M24.7498 42.6798C24.7498 42.6798 26.1338 43.3065 25.9888 44.37L26 47.0001H18.6294H13.9493" stroke="#477C59" stroke-width="2.7" stroke-linecap="round" stroke-linejoin="round"/>
<path d="M24.7498 26.619C23.9486 27.7212 23.0912 28.8463 21.8916 29.6606C20.692 30.4748 18.911 30.5111 17.8353 31.4535C16.9961 32.1879 16.9722 33.1848 17.4439 34.091C17.4439 34.091 18.2056 35.7134 19.9937 35.7557H24.4935" stroke="#477C59" stroke-width="2.7" stroke-miterlimit="10"/>
<path d="M11.7444 19.5779C11.7444 19.5779 13.8535 22.0726 16.2034 19.5779" stroke="#477C59" stroke-width="2.7" stroke-linecap="round" stroke-linejoin="round"/>
</svg>
