<svg width="29" height="25" viewBox="0 0 29 25" fill="none" xmlns="http://www.w3.org/2000/svg">
<path d="M24.445 4.18635C23.8704 3.61148 23.1882 3.15545 22.4373 2.84432C21.6864 2.53319 20.8816 2.37305 20.0688 2.37305C19.256 2.37305 18.4511 2.53319 17.7002 2.84432C16.9493 3.15545 16.2671 3.61148 15.6925 4.18635L14.5 5.37885L13.3075 4.18635C12.1469 3.0257 10.5727 2.37365 8.93126 2.37365C7.28985 2.37365 5.71567 3.0257 4.55501 4.18635C3.39436 5.347 2.74231 6.92119 2.74231 8.5626C2.74231 10.204 3.39436 11.7782 4.55501 12.9389L14.5 22.8838L24.445 12.9389C25.0199 12.3643 25.4759 11.682 25.787 10.9311C26.0982 10.1802 26.2583 9.3754 26.2583 8.5626C26.2583 7.7498 26.0982 6.94497 25.787 6.19408C25.4759 5.44318 25.0199 4.76095 24.445 4.18635Z" fill="white" stroke="white" stroke-width="4" stroke-linecap="round" stroke-linejoin="round"/>
</svg>
